<svg version="1" xmlns="http://www.w3.org/2000/svg" width="426.667" height="426.667" viewBox="0 0 320.000000 320.000000"><path d="M142 37.1c-10.8 1.1-28.1 5.4-37.6 9.3C76.8 57.7 56.1 81 48.2 109.9l-2.7 9.6v147l2.9 5.8c4.8 9.5 12.7 15.6 24.5 19.1 19.1 5.6 42-5.6 48.4-23.6.8-2.3 1.3-23.7 1.7-70.8l.5-67.5 2.3-5c5.5-12 12.8-15.5 32.2-15.5 20.9 0 28 4.2 33.3 19.5.7 1.9 1.3 27.1 1.6 70.5l.6 67.5 2.7 5.1c5.4 10.3 13 16.3 24.6 19.6 8.1 2.2 13.5 2.3 21.6.2 14.3-3.7 24.7-14 27.6-27.4.8-4 1.1-24 .8-74-.4-66.1-.5-68.8-2.6-76.6-5-19.1-11.7-31.7-23.4-44-13.3-14-30.1-23.3-50.9-28.4-19.7-4.7-34.1-5.8-51.9-3.9z"/></svg>